<svg width="131" height="12" viewBox="0 0 131 12" fill="none" xmlns="http://www.w3.org/2000/svg">
<path d="M7.455 3.14C7.385 3.07 7.255 2.975 7.065 2.855C6.885 2.735 6.66 2.62 6.39 2.51C6.13 2.4 5.845 2.305 5.535 2.225C5.225 2.135 4.91 2.09 4.59 2.09C4.03 2.09 3.605 2.195 3.315 2.405C3.035 2.615 2.895 2.91 2.895 3.29C2.895 3.58 2.985 3.81 3.165 3.98C3.345 4.15 3.615 4.295 3.975 4.415C4.335 4.535 4.785 4.665 5.325 4.805C6.025 4.975 6.63 5.185 7.14 5.435C7.66 5.675 8.055 5.995 8.325 6.395C8.605 6.785 8.745 7.305 8.745 7.955C8.745 8.525 8.64 9.015 8.43 9.425C8.22 9.825 7.93 10.15 7.56 10.4C7.19 10.65 6.77 10.835 6.3 10.955C5.83 11.065 5.33 11.12 4.8 11.12C4.27 11.12 3.74 11.065 3.21 10.955C2.68 10.845 2.17 10.69 1.68 10.49C1.19 10.28 0.74 10.03 0.33 9.74L1.245 7.955C1.335 8.045 1.495 8.165 1.725 8.315C1.955 8.455 2.235 8.6 2.565 8.75C2.895 8.89 3.255 9.01 3.645 9.11C4.035 9.21 4.43 9.26 4.83 9.26C5.39 9.26 5.815 9.165 6.105 8.975C6.395 8.785 6.54 8.515 6.54 8.165C6.54 7.845 6.425 7.595 6.195 7.415C5.965 7.235 5.645 7.08 5.235 6.95C4.825 6.81 4.34 6.66 3.78 6.5C3.11 6.31 2.55 6.1 2.1 5.87C1.65 5.63 1.315 5.33 1.095 4.97C0.875 4.61 0.765 4.16 0.765 3.62C0.765 2.89 0.935 2.28 1.275 1.79C1.625 1.29 2.095 0.915 2.685 0.665C3.275 0.405 3.93 0.274999 4.65 0.274999C5.15 0.274999 5.62 0.329999 6.06 0.439999C6.51 0.55 6.93 0.695 7.32 0.875C7.71 1.055 8.06 1.25 8.37 1.46L7.455 3.14ZM11.0592 11V0.349999H13.1292V11H11.0592ZM20.5262 11.075C19.8362 11.075 19.1812 10.935 18.5612 10.655C17.9512 10.375 17.4112 9.99 16.9412 9.5C16.4812 9 16.1212 8.42 15.8612 7.76C15.6012 7.1 15.4712 6.385 15.4712 5.615C15.4712 4.885 15.6012 4.2 15.8612 3.56C16.1212 2.91 16.4862 2.34 16.9562 1.85C17.4262 1.36 17.9762 0.974999 18.6062 0.694999C19.2362 0.414999 19.9212 0.274999 20.6612 0.274999C21.6612 0.274999 22.5162 0.489999 23.2262 0.919999C23.9462 1.34 24.4862 1.9 24.8462 2.6L23.3012 3.74C23.0312 3.21 22.6512 2.805 22.1612 2.525C21.6812 2.245 21.1562 2.105 20.5862 2.105C20.1362 2.105 19.7262 2.2 19.3562 2.39C18.9862 2.58 18.6662 2.84 18.3962 3.17C18.1262 3.5 17.9162 3.88 17.7662 4.31C17.6262 4.74 17.5562 5.195 17.5562 5.675C17.5562 6.185 17.6312 6.655 17.7812 7.085C17.9412 7.515 18.1612 7.89 18.4412 8.21C18.7312 8.53 19.0662 8.785 19.4462 8.975C19.8262 9.155 20.2462 9.245 20.7062 9.245C21.2462 9.245 21.7612 9.105 22.2512 8.825C22.7512 8.545 23.2162 8.135 23.6462 7.595V9.635C22.7562 10.595 21.7162 11.075 20.5262 11.075ZM23.4962 7.04H21.3512V5.525H25.2062V11H23.4962V7.04ZM29.7904 4.16V11H27.7204V0.349999H29.3704L34.8754 7.37V0.364999H36.9454V11H35.2204L29.7904 4.16ZM44.4258 11.075C43.5758 11.075 42.8508 10.935 42.2508 10.655C41.6608 10.365 41.1808 9.97 40.8108 9.47C40.4508 8.97 40.1858 8.405 40.0158 7.775C39.8458 7.135 39.7608 6.47 39.7608 5.78V0.349999H41.8308V5.78C41.8308 6.22 41.8708 6.65 41.9508 7.07C42.0408 7.48 42.1858 7.85 42.3858 8.18C42.5858 8.51 42.8508 8.77 43.1808 8.96C43.5108 9.15 43.9208 9.245 44.4108 9.245C44.9108 9.245 45.3258 9.15 45.6558 8.96C45.9958 8.76 46.2608 8.495 46.4508 8.165C46.6508 7.835 46.7958 7.465 46.8858 7.055C46.9758 6.635 47.0208 6.21 47.0208 5.78V0.349999H49.0758V5.78C49.0758 6.51 48.9858 7.195 48.8058 7.835C48.6358 8.475 48.3608 9.04 47.9808 9.53C47.6108 10.01 47.1308 10.39 46.5408 10.67C45.9508 10.94 45.2458 11.075 44.4258 11.075ZM60.5958 11V4.01L57.8658 9.215H56.7108L53.9808 4.01V11H51.9108V0.349999H54.1308L57.2808 6.41L60.4608 0.349999H62.6658V11H60.5958ZM77.5184 2.165H74.1134V11H72.0584V2.165H68.6534V0.349999H77.5184V2.165ZM81.4894 0.349999H83.5894L87.5044 11H85.3744L84.3844 8.345H80.6644L79.6894 11H77.5594L81.4894 0.349999ZM84.0094 6.89L82.5394 2.495L81.0094 6.89H84.0094ZM96.3914 2.165H92.9864V11H90.9314V2.165H87.5264V0.349999H96.3914V2.165ZM106.429 2.165H103.024V11H100.969V2.165H97.5635V0.349999H106.429V2.165ZM112.797 11.075C112.017 11.075 111.307 10.925 110.667 10.625C110.037 10.325 109.492 9.92 109.032 9.41C108.582 8.89 108.232 8.31 107.982 7.67C107.732 7.02 107.607 6.355 107.607 5.675C107.607 4.965 107.737 4.29 107.997 3.65C108.267 3 108.632 2.425 109.092 1.925C109.562 1.415 110.112 1.015 110.742 0.724999C111.382 0.424999 112.082 0.274999 112.842 0.274999C113.612 0.274999 114.312 0.43 114.942 0.74C115.582 1.05 116.127 1.465 116.577 1.985C117.027 2.505 117.377 3.085 117.627 3.725C117.877 4.365 118.002 5.025 118.002 5.705C118.002 6.405 117.872 7.08 117.612 7.73C117.352 8.37 116.987 8.945 116.517 9.455C116.057 9.955 115.507 10.35 114.867 10.64C114.237 10.93 113.547 11.075 112.797 11.075ZM109.707 5.675C109.707 6.135 109.777 6.58 109.917 7.01C110.057 7.44 110.257 7.825 110.517 8.165C110.787 8.495 111.112 8.76 111.492 8.96C111.882 9.15 112.322 9.245 112.812 9.245C113.312 9.245 113.757 9.145 114.147 8.945C114.537 8.735 114.862 8.46 115.122 8.12C115.382 7.77 115.577 7.385 115.707 6.965C115.847 6.535 115.917 6.105 115.917 5.675C115.917 5.215 115.842 4.775 115.692 4.355C115.552 3.925 115.347 3.545 115.077 3.215C114.817 2.875 114.492 2.61 114.102 2.42C113.722 2.22 113.292 2.12 112.812 2.12C112.302 2.12 111.852 2.225 111.462 2.435C111.082 2.635 110.762 2.905 110.502 3.245C110.242 3.585 110.042 3.965 109.902 4.385C109.772 4.805 109.707 5.235 109.707 5.675ZM124.884 11.075C124.104 11.075 123.394 10.925 122.754 10.625C122.124 10.325 121.579 9.92 121.119 9.41C120.669 8.89 120.319 8.31 120.069 7.67C119.819 7.02 119.694 6.355 119.694 5.675C119.694 4.965 119.824 4.29 120.084 3.65C120.354 3 120.719 2.425 121.179 1.925C121.649 1.415 122.199 1.015 122.829 0.724999C123.469 0.424999 124.169 0.274999 124.929 0.274999C125.699 0.274999 126.399 0.43 127.029 0.74C127.669 1.05 128.214 1.465 128.664 1.985C129.114 2.505 129.464 3.085 129.714 3.725C129.964 4.365 130.089 5.025 130.089 5.705C130.089 6.405 129.959 7.08 129.699 7.73C129.439 8.37 129.074 8.945 128.604 9.455C128.144 9.955 127.594 10.35 126.954 10.64C126.324 10.93 125.634 11.075 124.884 11.075ZM121.794 5.675C121.794 6.135 121.864 6.58 122.004 7.01C122.144 7.44 122.344 7.825 122.604 8.165C122.874 8.495 123.199 8.76 123.579 8.96C123.969 9.15 124.409 9.245 124.899 9.245C125.399 9.245 125.844 9.145 126.234 8.945C126.624 8.735 126.949 8.46 127.209 8.12C127.469 7.77 127.664 7.385 127.794 6.965C127.934 6.535 128.004 6.105 128.004 5.675C128.004 5.215 127.929 4.775 127.779 4.355C127.639 3.925 127.434 3.545 127.164 3.215C126.904 2.875 126.579 2.61 126.189 2.42C125.809 2.22 125.379 2.12 124.899 2.12C124.389 2.12 123.939 2.225 123.549 2.435C123.169 2.635 122.849 2.905 122.589 3.245C122.329 3.585 122.129 3.965 121.989 4.385C121.859 4.805 121.794 5.235 121.794 5.675Z" fill="black"/>
</svg>
