<svg width="40" height="259" viewBox="0 0 40 259" fill="none" xmlns="http://www.w3.org/2000/svg">
<rect x="0.5" y="0.5" width="39" height="39" rx="19.5" stroke="#B9262D"/>
<path d="M22.816 24.72V26H17.072V24.72H19.344V18.48C19.248 18.608 19.0987 18.7467 18.896 18.896C18.6933 19.0347 18.464 19.168 18.208 19.296C17.952 19.424 17.696 19.5307 17.44 19.616C17.184 19.6907 16.9493 19.728 16.736 19.728V18.384C16.9707 18.384 17.2267 18.32 17.504 18.192C17.792 18.0533 18.0693 17.8933 18.336 17.712C18.6027 17.5307 18.8267 17.36 19.008 17.2C19.2 17.04 19.312 16.928 19.344 16.864H20.784V24.72H22.816Z" fill="black"/>
<line x1="20.5" y1="40" x2="20.5" y2="73" stroke="#B9262D"/>
<rect x="0.5" y="73.5" width="39" height="39" rx="19.5" stroke="#B9262D"/>
<path d="M16.688 99C16.688 98.5733 16.72 98.1733 16.784 97.8C16.8587 97.4267 16.9867 97.0693 17.168 96.728C17.36 96.3867 17.6267 96.0613 17.968 95.752C18.3093 95.432 18.752 95.1227 19.296 94.824C19.616 94.6427 19.936 94.472 20.256 94.312C20.5867 94.152 20.8907 93.9813 21.168 93.8C21.456 93.6187 21.6853 93.4213 21.856 93.208C22.0267 92.984 22.112 92.728 22.112 92.44C22.112 92.1947 22.0373 91.96 21.888 91.736C21.7493 91.5013 21.536 91.3147 21.248 91.176C20.9707 91.0267 20.624 90.952 20.208 90.952C19.888 90.952 19.5947 90.9947 19.328 91.08C19.072 91.1653 18.8373 91.2773 18.624 91.416C18.4213 91.544 18.24 91.6827 18.08 91.832C17.9307 91.9707 17.8027 92.0987 17.696 92.216L16.816 91.224C16.9013 91.128 17.0453 91 17.248 90.84C17.4507 90.6693 17.7067 90.4987 18.016 90.328C18.3253 90.1573 18.6827 90.0133 19.088 89.896C19.504 89.768 19.9573 89.704 20.448 89.704C21.1093 89.704 21.6747 89.8213 22.144 90.056C22.624 90.28 22.992 90.5893 23.248 90.984C23.504 91.368 23.632 91.8 23.632 92.28C23.632 92.696 23.5413 93.0587 23.36 93.368C23.1893 93.6773 22.9653 93.9493 22.688 94.184C22.4213 94.4187 22.1387 94.6213 21.84 94.792C21.552 94.952 21.2907 95.0907 21.056 95.208C20.576 95.4427 20.1653 95.656 19.824 95.848C19.4827 96.04 19.2 96.232 18.976 96.424C18.7627 96.6053 18.5867 96.7973 18.448 97C18.32 97.2027 18.224 97.4427 18.16 97.72H23.808V99H16.688Z" fill="black"/>
<rect x="0.5" y="219.5" width="39" height="39" rx="19.5" fill="#B9262D"/>
<rect x="0.5" y="219.5" width="39" height="39" rx="19.5" stroke="#B9262D"/>
<path d="M8.41 240.41L14 246L15.41 244.58L9.83 239M30.24 232.58L19.66 243.17L15.5 239L14.07 240.41L19.66 246L31.66 234M26 234L24.59 232.58L18.24 238.93L19.66 240.34L26 234Z" fill="white"/>
<rect x="0.5" y="146.5" width="39" height="39" rx="19.5" stroke="#B9262D"/>
<path d="M21.728 168.224C22.1867 168.299 22.5813 168.469 22.912 168.736C23.2427 168.992 23.4987 169.323 23.68 169.728C23.8613 170.123 23.952 170.571 23.952 171.072C23.952 171.723 23.792 172.293 23.472 172.784C23.1627 173.285 22.72 173.669 22.144 173.936C21.568 174.213 20.896 174.352 20.128 174.352C19.3173 174.352 18.6027 174.197 17.984 173.888C17.376 173.589 16.9013 173.163 16.56 172.608L17.504 171.664C17.7493 172.091 18.08 172.432 18.496 172.688C18.9227 172.944 19.4667 173.072 20.128 173.072C20.864 173.072 21.44 172.901 21.856 172.56C22.2827 172.229 22.496 171.733 22.496 171.072C22.496 170.4 22.2667 169.867 21.808 169.472C21.36 169.067 20.704 168.864 19.84 168.864H19.424V167.68H19.872C20.64 167.68 21.2267 167.493 21.632 167.12C22.048 166.747 22.256 166.283 22.256 165.728C22.256 165.344 22.1653 165.029 21.984 164.784C21.8027 164.539 21.5573 164.357 21.248 164.24C20.9387 164.112 20.5813 164.048 20.176 164.048C19.5893 164.048 19.072 164.176 18.624 164.432C18.1867 164.677 17.8453 165.024 17.6 165.472L16.736 164.576C16.928 164.213 17.2 163.899 17.552 163.632C17.9147 163.365 18.3307 163.157 18.8 163.008C19.28 162.859 19.7867 162.784 20.32 162.784C20.992 162.784 21.584 162.901 22.096 163.136C22.6187 163.371 23.024 163.701 23.312 164.128C23.6 164.555 23.744 165.056 23.744 165.632C23.744 166.048 23.664 166.443 23.504 166.816C23.344 167.179 23.1093 167.488 22.8 167.744C22.5013 167.989 22.144 168.149 21.728 168.224Z" fill="black"/>
<line x1="20.5" y1="113" x2="20.5" y2="146" stroke="#B9262D"/>
<line x1="20.5" y1="186" x2="20.5" y2="219" stroke="#B9262D"/>
</svg>
