<svg width="86" height="20" viewBox="0 0 86 20" fill="none" xmlns="http://www.w3.org/2000/svg">
<path d="M7 0C3.13 0 0 3.13 0 7C0 12.25 7 20 7 20C7 20 14 12.25 14 7C14 3.13 10.87 0 7 0ZM2 7C2 4.24 4.24 2 7 2C9.76 2 12 4.24 12 7C12 9.88 9.12 14.19 7 16.88C4.92 14.21 2 9.85 2 7Z" fill="black"/>
<path d="M7 9.5C8.38071 9.5 9.5 8.38071 9.5 7C9.5 5.61929 8.38071 4.5 7 4.5C5.61929 4.5 4.5 5.61929 4.5 7C4.5 8.38071 5.61929 9.5 7 9.5Z" fill="black"/>
<path d="M24.49 13.516C24.6673 13.6373 24.91 13.754 25.218 13.866C25.5353 13.9687 25.9087 14.02 26.338 14.02C26.7767 14.02 27.136 13.95 27.416 13.81C27.696 13.6607 27.9107 13.4413 28.06 13.152C28.2093 12.8533 28.312 12.4753 28.368 12.018C28.424 11.5607 28.452 11.0193 28.452 10.394V5.06H29.712V10.114C29.712 10.8513 29.6747 11.528 29.6 12.144C29.5253 12.76 29.376 13.2967 29.152 13.754C28.928 14.202 28.592 14.5473 28.144 14.79C27.7053 15.0327 27.1173 15.154 26.38 15.154C25.9133 15.154 25.5027 15.1027 25.148 15C24.7933 14.8973 24.4667 14.7433 24.168 14.538L24.49 13.516ZM34.8999 15.14C34.3492 15.14 33.8452 15.042 33.3879 14.846C32.9399 14.6407 32.5479 14.3653 32.2119 14.02C31.8852 13.6653 31.6285 13.2593 31.4419 12.802C31.2645 12.3447 31.1759 11.8593 31.1759 11.346C31.1759 10.6553 31.3345 10.0253 31.6519 9.456C31.9692 8.88667 32.4079 8.42933 32.9679 8.084C33.5372 7.73867 34.1859 7.566 34.9139 7.566C35.6512 7.566 36.2905 7.74333 36.8319 8.098C37.3825 8.44333 37.8072 8.90067 38.1059 9.47C38.4139 10.03 38.5679 10.6367 38.5679 11.29C38.5679 11.3833 38.5632 11.4767 38.5539 11.57C38.5539 11.654 38.5492 11.7193 38.5399 11.766H32.4779C32.5152 12.242 32.6459 12.6667 32.8699 13.04C33.1032 13.404 33.4019 13.6933 33.7659 13.908C34.1299 14.1133 34.5219 14.216 34.9419 14.216C35.3899 14.216 35.8099 14.104 36.2019 13.88C36.6032 13.656 36.8785 13.362 37.0279 12.998L38.0919 13.292C37.9332 13.6467 37.6952 13.964 37.3779 14.244C37.0699 14.524 36.7012 14.7433 36.2719 14.902C35.8519 15.0607 35.3945 15.14 34.8999 15.14ZM32.4359 10.912H37.4199C37.3825 10.436 37.2472 10.016 37.0139 9.652C36.7805 9.288 36.4819 9.00333 36.1179 8.798C35.7539 8.59267 35.3525 8.49 34.9139 8.49C34.4845 8.49 34.0879 8.59267 33.7239 8.798C33.3599 9.00333 33.0612 9.288 32.8279 9.652C32.6039 10.016 32.4732 10.436 32.4359 10.912ZM42.4434 15.14C41.8367 15.14 41.2674 15.042 40.7354 14.846C40.2034 14.6407 39.746 14.3373 39.3634 13.936L39.8394 13.068C40.2594 13.46 40.6794 13.74 41.0994 13.908C41.5194 14.076 41.9487 14.16 42.3874 14.16C42.8914 14.16 43.302 14.0667 43.6194 13.88C43.9367 13.684 44.0954 13.3993 44.0954 13.026C44.0954 12.7553 44.0114 12.5547 43.8434 12.424C43.6847 12.2933 43.456 12.186 43.1574 12.102C42.8587 12.0087 42.504 11.906 42.0934 11.794C41.5894 11.6447 41.1647 11.486 40.8194 11.318C40.474 11.15 40.2127 10.94 40.0354 10.688C39.858 10.436 39.7694 10.1187 39.7694 9.736C39.7694 9.26933 39.8907 8.87733 40.1334 8.56C40.376 8.23333 40.7074 7.986 41.1274 7.818C41.5567 7.65 42.042 7.566 42.5834 7.566C43.1247 7.566 43.6147 7.65 44.0534 7.818C44.492 7.986 44.87 8.23333 45.1874 8.56L44.6274 9.414C44.338 9.11533 44.0207 8.896 43.6754 8.756C43.33 8.60667 42.9427 8.532 42.5134 8.532C42.2614 8.532 42.014 8.56467 41.7714 8.63C41.5287 8.686 41.328 8.79333 41.1694 8.952C41.0107 9.10133 40.9314 9.316 40.9314 9.596C40.9314 9.82933 40.992 10.016 41.1134 10.156C41.244 10.2867 41.4307 10.3987 41.6734 10.492C41.9254 10.5853 42.2287 10.688 42.5834 10.8C43.134 10.9587 43.61 11.1173 44.0114 11.276C44.422 11.4347 44.7394 11.64 44.9634 11.892C45.1874 12.144 45.2994 12.494 45.2994 12.942C45.2994 13.6327 45.038 14.174 44.5154 14.566C43.9927 14.9487 43.302 15.14 42.4434 15.14ZM49.2793 15.14C48.6726 15.14 48.1033 15.042 47.5713 14.846C47.0393 14.6407 46.582 14.3373 46.1993 13.936L46.6753 13.068C47.0953 13.46 47.5153 13.74 47.9353 13.908C48.3553 14.076 48.7846 14.16 49.2233 14.16C49.7273 14.16 50.138 14.0667 50.4553 13.88C50.7726 13.684 50.9313 13.3993 50.9313 13.026C50.9313 12.7553 50.8473 12.5547 50.6793 12.424C50.5206 12.2933 50.292 12.186 49.9933 12.102C49.6946 12.0087 49.34 11.906 48.9293 11.794C48.4253 11.6447 48.0006 11.486 47.6553 11.318C47.31 11.15 47.0486 10.94 46.8713 10.688C46.694 10.436 46.6053 10.1187 46.6053 9.736C46.6053 9.26933 46.7266 8.87733 46.9693 8.56C47.212 8.23333 47.5433 7.986 47.9633 7.818C48.3926 7.65 48.878 7.566 49.4193 7.566C49.9606 7.566 50.4506 7.65 50.8893 7.818C51.328 7.986 51.706 8.23333 52.0233 8.56L51.4633 9.414C51.174 9.11533 50.8566 8.896 50.5113 8.756C50.166 8.60667 49.7786 8.532 49.3493 8.532C49.0973 8.532 48.85 8.56467 48.6073 8.63C48.3646 8.686 48.164 8.79333 48.0053 8.952C47.8466 9.10133 47.7673 9.316 47.7673 9.596C47.7673 9.82933 47.828 10.016 47.9493 10.156C48.08 10.2867 48.2666 10.3987 48.5093 10.492C48.7613 10.5853 49.0646 10.688 49.4193 10.8C49.97 10.9587 50.446 11.1173 50.8473 11.276C51.258 11.4347 51.5753 11.64 51.7993 11.892C52.0233 12.144 52.1353 12.494 52.1353 12.942C52.1353 13.6327 51.874 14.174 51.3513 14.566C50.8286 14.9487 50.138 15.14 49.2793 15.14ZM59.9512 15H58.7192V10.912C58.7192 10.1653 58.5839 9.60533 58.3132 9.232C58.0519 8.85867 57.6739 8.672 57.1792 8.672C56.8619 8.672 56.5399 8.756 56.2132 8.924C55.8959 9.092 55.6159 9.32067 55.3732 9.61C55.1306 9.89 54.9532 10.2167 54.8412 10.59V15H53.6092V4.78H54.8412V9.26C55.1306 8.73733 55.5226 8.32667 56.0172 8.028C56.5212 7.72 57.0626 7.566 57.6412 7.566C58.0799 7.566 58.4439 7.64533 58.7332 7.804C59.0319 7.95333 59.2699 8.168 59.4472 8.448C59.6246 8.728 59.7506 9.05467 59.8252 9.428C59.9092 9.792 59.9512 10.1933 59.9512 10.632V15ZM65.101 15.14C64.5504 15.14 64.0464 15.042 63.589 14.846C63.141 14.6407 62.749 14.3653 62.413 14.02C62.0864 13.6653 61.8297 13.2593 61.643 12.802C61.4657 12.3447 61.377 11.8593 61.377 11.346C61.377 10.6553 61.5357 10.0253 61.853 9.456C62.1704 8.88667 62.609 8.42933 63.169 8.084C63.7384 7.73867 64.387 7.566 65.115 7.566C65.8524 7.566 66.4917 7.74333 67.033 8.098C67.5837 8.44333 68.0084 8.90067 68.307 9.47C68.615 10.03 68.769 10.6367 68.769 11.29C68.769 11.3833 68.7644 11.4767 68.755 11.57C68.755 11.654 68.7504 11.7193 68.741 11.766H62.679C62.7164 12.242 62.847 12.6667 63.071 13.04C63.3044 13.404 63.603 13.6933 63.967 13.908C64.331 14.1133 64.723 14.216 65.143 14.216C65.591 14.216 66.011 14.104 66.403 13.88C66.8044 13.656 67.0797 13.362 67.229 12.998L68.293 13.292C68.1344 13.6467 67.8964 13.964 67.579 14.244C67.271 14.524 66.9024 14.7433 66.473 14.902C66.053 15.0607 65.5957 15.14 65.101 15.14ZM62.637 10.912H67.621C67.5837 10.436 67.4484 10.016 67.215 9.652C66.9817 9.288 66.683 9.00333 66.319 8.798C65.955 8.59267 65.5537 8.49 65.115 8.49C64.6857 8.49 64.289 8.59267 63.925 8.798C63.561 9.00333 63.2624 9.288 63.029 9.652C62.805 10.016 62.6744 10.436 62.637 10.912ZM70.1385 15V7.692H71.3705V15H70.1385ZM70.1385 6.32V4.78H71.3705V6.32H70.1385ZM84.3831 15H83.1511V10.912C83.1511 10.1467 83.0251 9.582 82.7731 9.218C82.5304 8.854 82.1664 8.672 81.6811 8.672C81.1864 8.672 80.7384 8.854 80.3371 9.218C79.9358 9.57267 79.6511 10.0347 79.4831 10.604V15H78.2511V10.912C78.2511 10.1373 78.1298 9.57267 77.8871 9.218C77.6444 8.854 77.2804 8.672 76.7951 8.672C76.3098 8.672 75.8618 8.84933 75.4511 9.204C75.0498 9.54933 74.7651 10.0113 74.5971 10.59V15H73.3651V7.692H74.4851V9.26C74.7838 8.71867 75.1711 8.30333 75.6471 8.014C76.1231 7.71533 76.6598 7.566 77.2571 7.566C77.8638 7.566 78.3491 7.734 78.7131 8.07C79.0771 8.39667 79.3011 8.82133 79.3851 9.344C79.7118 8.76533 80.1084 8.32667 80.5751 8.028C81.0418 7.72 81.5738 7.566 82.1711 7.566C82.5911 7.566 82.9411 7.64533 83.2211 7.804C83.5104 7.95333 83.7391 8.168 83.9071 8.448C84.0751 8.71867 84.1964 9.04067 84.2711 9.414C84.3458 9.78733 84.3831 10.1933 84.3831 10.632V15Z" fill="black"/>
</svg>
